<?xml version="1.0" encoding="utf-8" standalone="no"?>
<!DOCTYPE svg PUBLIC "-//W3C//DTD SVG 1.1//EN"
  "http://www.w3.org/Graphics/SVG/1.1/DTD/svg11.dtd">
<!-- Created with matplotlib (https://matplotlib.org/) -->
<svg height="288pt" version="1.1" viewBox="0 0 432 288" width="432pt" xmlns="http://www.w3.org/2000/svg" xmlns:xlink="http://www.w3.org/1999/xlink">
 <defs>
  <style type="text/css">
*{stroke-linecap:butt;stroke-linejoin:round;}
  </style>
 </defs>
 <g id="figure_1">
  <g id="patch_1">
   <path d="M 0 288 
L 432 288 
L 432 0 
L 0 0 
z
" style="fill:none;"/>
  </g>
  <g id="axes_1">
   <g id="patch_2">
    <path d="M 39.306803 251.740072 
L 428.99976 251.740072 
L 428.99976 19.638052 
L 39.306803 19.638052 
z
" style="fill:none;"/>
   </g>
   <g id="PathCollection_1">
    <defs>
     <path d="M 0 2.236068 
C 0.593012 2.236068 1.161816 2.000462 1.581139 1.581139 
C 2.000462 1.161816 2.236068 0.593012 2.236068 0 
C 2.236068 -0.593012 2.000462 -1.161816 1.581139 -1.581139 
C 1.161816 -2.000462 0.593012 -2.236068 0 -2.236068 
C -0.593012 -2.236068 -1.161816 -2.000462 -1.581139 -1.581139 
C -2.000462 -1.161816 -2.236068 -0.593012 -2.236068 0 
C -2.236068 0.593012 -2.000462 1.161816 -1.581139 1.581139 
C -1.161816 2.000462 -0.593012 2.236068 0 2.236068 
z
" id="mcd8e00a45f" style="stroke:#1f77b4;"/>
    </defs>
    <g clip-path="url(#p9b9fd4ea64)">
     <use style="fill:#1f77b4;stroke:#1f77b4;" x="93.150389" xlink:href="#mcd8e00a45f" y="177.101198"/>
     <use style="fill:#1f77b4;stroke:#1f77b4;" x="95.169524" xlink:href="#mcd8e00a45f" y="154.709536"/>
     <use style="fill:#1f77b4;stroke:#1f77b4;" x="118.053048" xlink:href="#mcd8e00a45f" y="174.862032"/>
     <use style="fill:#1f77b4;stroke:#1f77b4;" x="130.167855" xlink:href="#mcd8e00a45f" y="172.374069"/>
     <use style="fill:#1f77b4;stroke:#1f77b4;" x="146.320931" xlink:href="#mcd8e00a45f" y="170.383699"/>
     <use style="fill:#1f77b4;stroke:#1f77b4;" x="163.820096" xlink:href="#mcd8e00a45f" y="167.02495"/>
     <use style="fill:#1f77b4;stroke:#1f77b4;" x="179.973172" xlink:href="#mcd8e00a45f" y="164.860423"/>
     <use style="fill:#1f77b4;stroke:#1f77b4;" x="200.164517" xlink:href="#mcd8e00a45f" y="162.422219"/>
     <use style="fill:#1f77b4;stroke:#1f77b4;" x="217.663683" xlink:href="#mcd8e00a45f" y="160.929442"/>
     <use style="fill:#1f77b4;stroke:#1f77b4;" x="235.162848" xlink:href="#mcd8e00a45f" y="141.523335"/>
     <use style="fill:#1f77b4;stroke:#1f77b4;" x="252.662014" xlink:href="#mcd8e00a45f" y="107.463128"/>
     <use style="fill:#1f77b4;stroke:#1f77b4;" x="270.16118" xlink:href="#mcd8e00a45f" y="106.965536"/>
     <use style="fill:#1f77b4;stroke:#1f77b4;" x="287.660345" xlink:href="#mcd8e00a45f" y="107.463128"/>
     <use style="fill:#1f77b4;stroke:#1f77b4;" x="303.813421" xlink:href="#mcd8e00a45f" y="106.965536"/>
     <use style="fill:#1f77b4;stroke:#1f77b4;" x="318.620408" xlink:href="#mcd8e00a45f" y="114.703099"/>
     <use style="fill:#1f77b4;stroke:#1f77b4;" x="333.427394" xlink:href="#mcd8e00a45f" y="97.735195"/>
     <use style="fill:#1f77b4;stroke:#1f77b4;" x="348.23438" xlink:href="#mcd8e00a45f" y="94.74964"/>
     <use style="fill:#1f77b4;stroke:#1f77b4;" x="354.964829" xlink:href="#mcd8e00a45f" y="94.351566"/>
     <use style="fill:#1f77b4;stroke:#1f77b4;" x="367.079635" xlink:href="#mcd8e00a45f" y="94.276927"/>
     <use style="fill:#1f77b4;stroke:#1f77b4;" x="372.463994" xlink:href="#mcd8e00a45f" y="97.760074"/>
     <use style="fill:#1f77b4;stroke:#1f77b4;" x="375.156173" xlink:href="#mcd8e00a45f" y="99.974361"/>
     <use style="fill:#1f77b4;stroke:#1f77b4;" x="373.810084" xlink:href="#mcd8e00a45f" y="99.078695"/>
     <use style="fill:#1f77b4;stroke:#1f77b4;" x="371.117904" xlink:href="#mcd8e00a45f" y="102.462324"/>
     <use style="fill:#1f77b4;stroke:#1f77b4;" x="367.079635" xlink:href="#mcd8e00a45f" y="104.427814"/>
     <use style="fill:#1f77b4;stroke:#1f77b4;" x="361.695277" xlink:href="#mcd8e00a45f" y="104.975166"/>
     <use style="fill:#1f77b4;stroke:#1f77b4;" x="357.657008" xlink:href="#mcd8e00a45f" y="106.791378"/>
     <use style="fill:#1f77b4;stroke:#1f77b4;" x="352.272649" xlink:href="#mcd8e00a45f" y="108.532952"/>
     <use style="fill:#1f77b4;stroke:#1f77b4;" x="346.888291" xlink:href="#mcd8e00a45f" y="109.453498"/>
     <use style="fill:#1f77b4;stroke:#1f77b4;" x="341.503932" xlink:href="#mcd8e00a45f" y="111.443868"/>
     <use style="fill:#1f77b4;stroke:#1f77b4;" x="336.119573" xlink:href="#mcd8e00a45f" y="113.33472"/>
     <use style="fill:#1f77b4;stroke:#1f77b4;" x="332.081304" xlink:href="#mcd8e00a45f" y="114.62846"/>
     <use style="fill:#1f77b4;stroke:#1f77b4;" x="326.696946" xlink:href="#mcd8e00a45f" y="116.170997"/>
     <use style="fill:#1f77b4;stroke:#1f77b4;" x="321.312587" xlink:href="#mcd8e00a45f" y="118.410163"/>
     <use style="fill:#1f77b4;stroke:#1f77b4;" x="317.274318" xlink:href="#mcd8e00a45f" y="119.579505"/>
     <use style="fill:#1f77b4;stroke:#1f77b4;" x="311.889959" xlink:href="#mcd8e00a45f" y="121.793792"/>
     <use style="fill:#1f77b4;stroke:#1f77b4;" x="307.85169" xlink:href="#mcd8e00a45f" y="122.58994"/>
     <use style="fill:#1f77b4;stroke:#1f77b4;" x="302.467332" xlink:href="#mcd8e00a45f" y="124.853986"/>
     <use style="fill:#1f77b4;stroke:#1f77b4;" x="298.429063" xlink:href="#mcd8e00a45f" y="124.878866"/>
     <use style="fill:#1f77b4;stroke:#1f77b4;" x="294.390794" xlink:href="#mcd8e00a45f" y="126.744837"/>
     <use style="fill:#1f77b4;stroke:#1f77b4;" x="290.352525" xlink:href="#mcd8e00a45f" y="128.113217"/>
     <use style="fill:#1f77b4;stroke:#1f77b4;" x="287.660345" xlink:href="#mcd8e00a45f" y="129.85479"/>
    </g>
   </g>
   <g id="matplotlib.axis_1">
    <g id="xtick_1">
     <g id="line2d_1">
      <defs>
       <path d="M 0 0 
L 0 3.5 
" id="mf5b3277eac" style="stroke:#000000;stroke-width:0.8;"/>
      </defs>
      <g>
       <use style="stroke:#000000;stroke-width:0.8;" x="58.825103" xlink:href="#mf5b3277eac" y="251.740072"/>
      </g>
     </g>
     <g id="text_1">
      <!-- 0 -->
      <defs>
       <path d="M 31.78125 66.40625 
Q 24.171875 66.40625 20.328125 58.90625 
Q 16.5 51.421875 16.5 36.375 
Q 16.5 21.390625 20.328125 13.890625 
Q 24.171875 6.390625 31.78125 6.390625 
Q 39.453125 6.390625 43.28125 13.890625 
Q 47.125 21.390625 47.125 36.375 
Q 47.125 51.421875 43.28125 58.90625 
Q 39.453125 66.40625 31.78125 66.40625 
z
M 31.78125 74.21875 
Q 44.046875 74.21875 50.515625 64.515625 
Q 56.984375 54.828125 56.984375 36.375 
Q 56.984375 17.96875 50.515625 8.265625 
Q 44.046875 -1.421875 31.78125 -1.421875 
Q 19.53125 -1.421875 13.0625 8.265625 
Q 6.59375 17.96875 6.59375 36.375 
Q 6.59375 54.828125 13.0625 64.515625 
Q 19.53125 74.21875 31.78125 74.21875 
z
" id="DejaVuSans-48"/>
      </defs>
      <g transform="translate(55.643853 266.33851)scale(0.1 -0.1)">
       <use xlink:href="#DejaVuSans-48"/>
      </g>
     </g>
    </g>
    <g id="xtick_2">
     <g id="line2d_2">
      <g>
       <use style="stroke:#000000;stroke-width:0.8;" x="126.129586" xlink:href="#mf5b3277eac" y="251.740072"/>
      </g>
     </g>
     <g id="text_2">
      <!-- 50 -->
      <defs>
       <path d="M 10.796875 72.90625 
L 49.515625 72.90625 
L 49.515625 64.59375 
L 19.828125 64.59375 
L 19.828125 46.734375 
Q 21.96875 47.46875 24.109375 47.828125 
Q 26.265625 48.1875 28.421875 48.1875 
Q 40.625 48.1875 47.75 41.5 
Q 54.890625 34.8125 54.890625 23.390625 
Q 54.890625 11.625 47.5625 5.09375 
Q 40.234375 -1.421875 26.90625 -1.421875 
Q 22.3125 -1.421875 17.546875 -0.640625 
Q 12.796875 0.140625 7.71875 1.703125 
L 7.71875 11.625 
Q 12.109375 9.234375 16.796875 8.0625 
Q 21.484375 6.890625 26.703125 6.890625 
Q 35.15625 6.890625 40.078125 11.328125 
Q 45.015625 15.765625 45.015625 23.390625 
Q 45.015625 31 40.078125 35.4375 
Q 35.15625 39.890625 26.703125 39.890625 
Q 22.75 39.890625 18.8125 39.015625 
Q 14.890625 38.140625 10.796875 36.28125 
z
" id="DejaVuSans-53"/>
      </defs>
      <g transform="translate(119.767086 266.33851)scale(0.1 -0.1)">
       <use xlink:href="#DejaVuSans-53"/>
       <use x="63.623047" xlink:href="#DejaVuSans-48"/>
      </g>
     </g>
    </g>
    <g id="xtick_3">
     <g id="line2d_3">
      <g>
       <use style="stroke:#000000;stroke-width:0.8;" x="193.434069" xlink:href="#mf5b3277eac" y="251.740072"/>
      </g>
     </g>
     <g id="text_3">
      <!-- 100 -->
      <defs>
       <path d="M 12.40625 8.296875 
L 28.515625 8.296875 
L 28.515625 63.921875 
L 10.984375 60.40625 
L 10.984375 69.390625 
L 28.421875 72.90625 
L 38.28125 72.90625 
L 38.28125 8.296875 
L 54.390625 8.296875 
L 54.390625 0 
L 12.40625 0 
z
" id="DejaVuSans-49"/>
      </defs>
      <g transform="translate(183.890319 266.33851)scale(0.1 -0.1)">
       <use xlink:href="#DejaVuSans-49"/>
       <use x="63.623047" xlink:href="#DejaVuSans-48"/>
       <use x="127.246094" xlink:href="#DejaVuSans-48"/>
      </g>
     </g>
    </g>
    <g id="xtick_4">
     <g id="line2d_4">
      <g>
       <use style="stroke:#000000;stroke-width:0.8;" x="260.738552" xlink:href="#mf5b3277eac" y="251.740072"/>
      </g>
     </g>
     <g id="text_4">
      <!-- 150 -->
      <g transform="translate(251.194802 266.33851)scale(0.1 -0.1)">
       <use xlink:href="#DejaVuSans-49"/>
       <use x="63.623047" xlink:href="#DejaVuSans-53"/>
       <use x="127.246094" xlink:href="#DejaVuSans-48"/>
      </g>
     </g>
    </g>
    <g id="xtick_5">
     <g id="line2d_5">
      <g>
       <use style="stroke:#000000;stroke-width:0.8;" x="328.043035" xlink:href="#mf5b3277eac" y="251.740072"/>
      </g>
     </g>
     <g id="text_5">
      <!-- 200 -->
      <defs>
       <path d="M 19.1875 8.296875 
L 53.609375 8.296875 
L 53.609375 0 
L 7.328125 0 
L 7.328125 8.296875 
Q 12.9375 14.109375 22.625 23.890625 
Q 32.328125 33.6875 34.8125 36.53125 
Q 39.546875 41.84375 41.421875 45.53125 
Q 43.3125 49.21875 43.3125 52.78125 
Q 43.3125 58.59375 39.234375 62.25 
Q 35.15625 65.921875 28.609375 65.921875 
Q 23.96875 65.921875 18.8125 64.3125 
Q 13.671875 62.703125 7.8125 59.421875 
L 7.8125 69.390625 
Q 13.765625 71.78125 18.9375 73 
Q 24.125 74.21875 28.421875 74.21875 
Q 39.75 74.21875 46.484375 68.546875 
Q 53.21875 62.890625 53.21875 53.421875 
Q 53.21875 48.921875 51.53125 44.890625 
Q 49.859375 40.875 45.40625 35.40625 
Q 44.1875 33.984375 37.640625 27.21875 
Q 31.109375 20.453125 19.1875 8.296875 
z
" id="DejaVuSans-50"/>
      </defs>
      <g transform="translate(318.499285 266.33851)scale(0.1 -0.1)">
       <use xlink:href="#DejaVuSans-50"/>
       <use x="63.623047" xlink:href="#DejaVuSans-48"/>
       <use x="127.246094" xlink:href="#DejaVuSans-48"/>
      </g>
     </g>
    </g>
    <g id="xtick_6">
     <g id="line2d_6">
      <g>
       <use style="stroke:#000000;stroke-width:0.8;" x="395.347518" xlink:href="#mf5b3277eac" y="251.740072"/>
      </g>
     </g>
     <g id="text_6">
      <!-- 250 -->
      <g transform="translate(385.803768 266.33851)scale(0.1 -0.1)">
       <use xlink:href="#DejaVuSans-50"/>
       <use x="63.623047" xlink:href="#DejaVuSans-53"/>
       <use x="127.246094" xlink:href="#DejaVuSans-48"/>
      </g>
     </g>
    </g>
    <g id="text_7">
     <!-- ffj -->
     <defs>
      <path d="M 37.109375 75.984375 
L 37.109375 68.5 
L 28.515625 68.5 
Q 23.6875 68.5 21.796875 66.546875 
Q 19.921875 64.59375 19.921875 59.515625 
L 19.921875 54.6875 
L 34.71875 54.6875 
L 34.71875 47.703125 
L 19.921875 47.703125 
L 19.921875 0 
L 10.890625 0 
L 10.890625 47.703125 
L 2.296875 47.703125 
L 2.296875 54.6875 
L 10.890625 54.6875 
L 10.890625 58.5 
Q 10.890625 67.625 15.140625 71.796875 
Q 19.390625 75.984375 28.609375 75.984375 
z
" id="DejaVuSans-102"/>
      <path d="M 9.421875 54.6875 
L 18.40625 54.6875 
L 18.40625 -0.984375 
Q 18.40625 -11.421875 14.421875 -16.109375 
Q 10.453125 -20.796875 1.609375 -20.796875 
L -1.8125 -20.796875 
L -1.8125 -13.1875 
L 0.59375 -13.1875 
Q 5.71875 -13.1875 7.5625 -10.8125 
Q 9.421875 -8.453125 9.421875 -0.984375 
z
M 9.421875 75.984375 
L 18.40625 75.984375 
L 18.40625 64.59375 
L 9.421875 64.59375 
z
" id="DejaVuSans-106"/>
     </defs>
     <g transform="translate(227.771094 282.296166)scale(0.13 -0.13)">
      <use xlink:href="#DejaVuSans-102"/>
      <use x="35.205078" xlink:href="#DejaVuSans-102"/>
      <use x="70.410156" xlink:href="#DejaVuSans-106"/>
     </g>
    </g>
   </g>
   <g id="matplotlib.axis_2">
    <g id="ytick_1">
     <g id="line2d_7">
      <defs>
       <path d="M 0 0 
L -3.5 0 
" id="mb8cc304a84" style="stroke:#000000;stroke-width:0.8;"/>
      </defs>
      <g>
       <use style="stroke:#000000;stroke-width:0.8;" x="39.306803" xlink:href="#mb8cc304a84" y="226.860448"/>
      </g>
     </g>
     <g id="text_8">
      <!-- 4 -->
      <defs>
       <path d="M 37.796875 64.3125 
L 12.890625 25.390625 
L 37.796875 25.390625 
z
M 35.203125 72.90625 
L 47.609375 72.90625 
L 47.609375 25.390625 
L 58.015625 25.390625 
L 58.015625 17.1875 
L 47.609375 17.1875 
L 47.609375 0 
L 37.796875 0 
L 37.796875 17.1875 
L 4.890625 17.1875 
L 4.890625 26.703125 
z
" id="DejaVuSans-52"/>
      </defs>
      <g transform="translate(25.944303 230.659666)scale(0.1 -0.1)">
       <use xlink:href="#DejaVuSans-52"/>
      </g>
     </g>
    </g>
    <g id="ytick_2">
     <g id="line2d_8">
      <g>
       <use style="stroke:#000000;stroke-width:0.8;" x="39.306803" xlink:href="#mb8cc304a84" y="177.101198"/>
      </g>
     </g>
     <g id="text_9">
      <!-- 6 -->
      <defs>
       <path d="M 33.015625 40.375 
Q 26.375 40.375 22.484375 35.828125 
Q 18.609375 31.296875 18.609375 23.390625 
Q 18.609375 15.53125 22.484375 10.953125 
Q 26.375 6.390625 33.015625 6.390625 
Q 39.65625 6.390625 43.53125 10.953125 
Q 47.40625 15.53125 47.40625 23.390625 
Q 47.40625 31.296875 43.53125 35.828125 
Q 39.65625 40.375 33.015625 40.375 
z
M 52.59375 71.296875 
L 52.59375 62.3125 
Q 48.875 64.0625 45.09375 64.984375 
Q 41.3125 65.921875 37.59375 65.921875 
Q 27.828125 65.921875 22.671875 59.328125 
Q 17.53125 52.734375 16.796875 39.40625 
Q 19.671875 43.65625 24.015625 45.921875 
Q 28.375 48.1875 33.59375 48.1875 
Q 44.578125 48.1875 50.953125 41.515625 
Q 57.328125 34.859375 57.328125 23.390625 
Q 57.328125 12.15625 50.6875 5.359375 
Q 44.046875 -1.421875 33.015625 -1.421875 
Q 20.359375 -1.421875 13.671875 8.265625 
Q 6.984375 17.96875 6.984375 36.375 
Q 6.984375 53.65625 15.1875 63.9375 
Q 23.390625 74.21875 37.203125 74.21875 
Q 40.921875 74.21875 44.703125 73.484375 
Q 48.484375 72.75 52.59375 71.296875 
z
" id="DejaVuSans-54"/>
      </defs>
      <g transform="translate(25.944303 180.900417)scale(0.1 -0.1)">
       <use xlink:href="#DejaVuSans-54"/>
      </g>
     </g>
    </g>
    <g id="ytick_3">
     <g id="line2d_9">
      <g>
       <use style="stroke:#000000;stroke-width:0.8;" x="39.306803" xlink:href="#mb8cc304a84" y="127.341948"/>
      </g>
     </g>
     <g id="text_10">
      <!-- 8 -->
      <defs>
       <path d="M 31.78125 34.625 
Q 24.75 34.625 20.71875 30.859375 
Q 16.703125 27.09375 16.703125 20.515625 
Q 16.703125 13.921875 20.71875 10.15625 
Q 24.75 6.390625 31.78125 6.390625 
Q 38.8125 6.390625 42.859375 10.171875 
Q 46.921875 13.96875 46.921875 20.515625 
Q 46.921875 27.09375 42.890625 30.859375 
Q 38.875 34.625 31.78125 34.625 
z
M 21.921875 38.8125 
Q 15.578125 40.375 12.03125 44.71875 
Q 8.5 49.078125 8.5 55.328125 
Q 8.5 64.0625 14.71875 69.140625 
Q 20.953125 74.21875 31.78125 74.21875 
Q 42.671875 74.21875 48.875 69.140625 
Q 55.078125 64.0625 55.078125 55.328125 
Q 55.078125 49.078125 51.53125 44.71875 
Q 48 40.375 41.703125 38.8125 
Q 48.828125 37.15625 52.796875 32.3125 
Q 56.78125 27.484375 56.78125 20.515625 
Q 56.78125 9.90625 50.3125 4.234375 
Q 43.84375 -1.421875 31.78125 -1.421875 
Q 19.734375 -1.421875 13.25 4.234375 
Q 6.78125 9.90625 6.78125 20.515625 
Q 6.78125 27.484375 10.78125 32.3125 
Q 14.796875 37.15625 21.921875 38.8125 
z
M 18.3125 54.390625 
Q 18.3125 48.734375 21.84375 45.5625 
Q 25.390625 42.390625 31.78125 42.390625 
Q 38.140625 42.390625 41.71875 45.5625 
Q 45.3125 48.734375 45.3125 54.390625 
Q 45.3125 60.0625 41.71875 63.234375 
Q 38.140625 66.40625 31.78125 66.40625 
Q 25.390625 66.40625 21.84375 63.234375 
Q 18.3125 60.0625 18.3125 54.390625 
z
" id="DejaVuSans-56"/>
      </defs>
      <g transform="translate(25.944303 131.141167)scale(0.1 -0.1)">
       <use xlink:href="#DejaVuSans-56"/>
      </g>
     </g>
    </g>
    <g id="ytick_4">
     <g id="line2d_10">
      <g>
       <use style="stroke:#000000;stroke-width:0.8;" x="39.306803" xlink:href="#mb8cc304a84" y="77.582699"/>
      </g>
     </g>
     <g id="text_11">
      <!-- 10 -->
      <g transform="translate(19.581803 81.381917)scale(0.1 -0.1)">
       <use xlink:href="#DejaVuSans-49"/>
       <use x="63.623047" xlink:href="#DejaVuSans-48"/>
      </g>
     </g>
    </g>
    <g id="ytick_5">
     <g id="line2d_11">
      <g>
       <use style="stroke:#000000;stroke-width:0.8;" x="39.306803" xlink:href="#mb8cc304a84" y="27.823449"/>
      </g>
     </g>
     <g id="text_12">
      <!-- 12 -->
      <g transform="translate(19.581803 31.622668)scale(0.1 -0.1)">
       <use xlink:href="#DejaVuSans-49"/>
       <use x="63.623047" xlink:href="#DejaVuSans-50"/>
      </g>
     </g>
    </g>
    <g id="text_13">
     <!-- sk -->
     <defs>
      <path d="M 44.28125 53.078125 
L 44.28125 44.578125 
Q 40.484375 46.53125 36.375 47.5 
Q 32.28125 48.484375 27.875 48.484375 
Q 21.1875 48.484375 17.84375 46.4375 
Q 14.5 44.390625 14.5 40.28125 
Q 14.5 37.15625 16.890625 35.375 
Q 19.28125 33.59375 26.515625 31.984375 
L 29.59375 31.296875 
Q 39.15625 29.25 43.1875 25.515625 
Q 47.21875 21.78125 47.21875 15.09375 
Q 47.21875 7.46875 41.1875 3.015625 
Q 35.15625 -1.421875 24.609375 -1.421875 
Q 20.21875 -1.421875 15.453125 -0.5625 
Q 10.6875 0.296875 5.421875 2 
L 5.421875 11.28125 
Q 10.40625 8.6875 15.234375 7.390625 
Q 20.0625 6.109375 24.8125 6.109375 
Q 31.15625 6.109375 34.5625 8.28125 
Q 37.984375 10.453125 37.984375 14.40625 
Q 37.984375 18.0625 35.515625 20.015625 
Q 33.0625 21.96875 24.703125 23.78125 
L 21.578125 24.515625 
Q 13.234375 26.265625 9.515625 29.90625 
Q 5.8125 33.546875 5.8125 39.890625 
Q 5.8125 47.609375 11.28125 51.796875 
Q 16.75 56 26.8125 56 
Q 31.78125 56 36.171875 55.265625 
Q 40.578125 54.546875 44.28125 53.078125 
z
" id="DejaVuSans-115"/>
      <path d="M 9.078125 75.984375 
L 18.109375 75.984375 
L 18.109375 31.109375 
L 44.921875 54.6875 
L 56.390625 54.6875 
L 27.390625 29.109375 
L 57.625 0 
L 45.90625 0 
L 18.109375 26.703125 
L 18.109375 0 
L 9.078125 0 
z
" id="DejaVuSans-107"/>
     </defs>
     <g transform="translate(12.878209 142.839062)rotate(-90)scale(0.13 -0.13)">
      <use xlink:href="#DejaVuSans-115"/>
      <use x="52.099609" xlink:href="#DejaVuSans-107"/>
     </g>
    </g>
   </g>
   <g id="LineCollection_1">
    <path clip-path="url(#p9b9fd4ea64)" d="M 79.245996 177.101198 
L 107.054782 177.101198 
" style="fill:none;stroke:#1f77b4;stroke-width:1.5;"/>
    <path clip-path="url(#p9b9fd4ea64)" d="M 81.26513 154.709536 
L 109.073917 154.709536 
" style="fill:none;stroke:#1f77b4;stroke-width:1.5;"/>
    <path clip-path="url(#p9b9fd4ea64)" d="M 104.148655 174.862032 
L 131.957441 174.862032 
" style="fill:none;stroke:#1f77b4;stroke-width:1.5;"/>
    <path clip-path="url(#p9b9fd4ea64)" d="M 116.263461 172.374069 
L 144.072248 172.374069 
" style="fill:none;stroke:#1f77b4;stroke-width:1.5;"/>
    <path clip-path="url(#p9b9fd4ea64)" d="M 132.416537 170.383699 
L 160.225324 170.383699 
" style="fill:none;stroke:#1f77b4;stroke-width:1.5;"/>
    <path clip-path="url(#p9b9fd4ea64)" d="M 149.915703 167.02495 
L 177.72449 167.02495 
" style="fill:none;stroke:#1f77b4;stroke-width:1.5;"/>
    <path clip-path="url(#p9b9fd4ea64)" d="M 166.068779 164.860423 
L 193.877566 164.860423 
" style="fill:none;stroke:#1f77b4;stroke-width:1.5;"/>
    <path clip-path="url(#p9b9fd4ea64)" d="M 186.260124 162.422219 
L 214.068911 162.422219 
" style="fill:none;stroke:#1f77b4;stroke-width:1.5;"/>
    <path clip-path="url(#p9b9fd4ea64)" d="M 203.75929 160.929442 
L 231.568076 160.929442 
" style="fill:none;stroke:#1f77b4;stroke-width:1.5;"/>
    <path clip-path="url(#p9b9fd4ea64)" d="M 221.258455 141.523335 
L 249.067242 141.523335 
" style="fill:none;stroke:#1f77b4;stroke-width:1.5;"/>
    <path clip-path="url(#p9b9fd4ea64)" d="M 238.757621 107.463128 
L 266.566407 107.463128 
" style="fill:none;stroke:#1f77b4;stroke-width:1.5;"/>
    <path clip-path="url(#p9b9fd4ea64)" d="M 256.256786 106.965536 
L 284.065573 106.965536 
" style="fill:none;stroke:#1f77b4;stroke-width:1.5;"/>
    <path clip-path="url(#p9b9fd4ea64)" d="M 273.755952 107.463128 
L 301.564739 107.463128 
" style="fill:none;stroke:#1f77b4;stroke-width:1.5;"/>
    <path clip-path="url(#p9b9fd4ea64)" d="M 289.909028 106.965536 
L 317.717815 106.965536 
" style="fill:none;stroke:#1f77b4;stroke-width:1.5;"/>
    <path clip-path="url(#p9b9fd4ea64)" d="M 304.716014 114.703099 
L 332.524801 114.703099 
" style="fill:none;stroke:#1f77b4;stroke-width:1.5;"/>
    <path clip-path="url(#p9b9fd4ea64)" d="M 319.523001 97.735195 
L 347.331787 97.735195 
" style="fill:none;stroke:#1f77b4;stroke-width:1.5;"/>
    <path clip-path="url(#p9b9fd4ea64)" d="M 334.329987 94.74964 
L 362.138773 94.74964 
" style="fill:none;stroke:#1f77b4;stroke-width:1.5;"/>
    <path clip-path="url(#p9b9fd4ea64)" d="M 341.060435 94.351566 
L 368.869222 94.351566 
" style="fill:none;stroke:#1f77b4;stroke-width:1.5;"/>
    <path clip-path="url(#p9b9fd4ea64)" d="M 353.175242 94.276927 
L 380.984029 94.276927 
" style="fill:none;stroke:#1f77b4;stroke-width:1.5;"/>
    <path clip-path="url(#p9b9fd4ea64)" d="M 358.559601 97.760074 
L 386.368387 97.760074 
" style="fill:none;stroke:#1f77b4;stroke-width:1.5;"/>
    <path clip-path="url(#p9b9fd4ea64)" d="M 361.25178 99.974361 
L 389.060567 99.974361 
" style="fill:none;stroke:#1f77b4;stroke-width:1.5;"/>
    <path clip-path="url(#p9b9fd4ea64)" d="M 359.905691 99.078695 
L 387.714477 99.078695 
" style="fill:none;stroke:#1f77b4;stroke-width:1.5;"/>
    <path clip-path="url(#p9b9fd4ea64)" d="M 357.213511 102.462324 
L 385.022298 102.462324 
" style="fill:none;stroke:#1f77b4;stroke-width:1.5;"/>
    <path clip-path="url(#p9b9fd4ea64)" d="M 353.175242 104.427814 
L 380.984029 104.427814 
" style="fill:none;stroke:#1f77b4;stroke-width:1.5;"/>
    <path clip-path="url(#p9b9fd4ea64)" d="M 347.790884 104.975166 
L 375.59967 104.975166 
" style="fill:none;stroke:#1f77b4;stroke-width:1.5;"/>
    <path clip-path="url(#p9b9fd4ea64)" d="M 343.752615 106.791378 
L 371.561401 106.791378 
" style="fill:none;stroke:#1f77b4;stroke-width:1.5;"/>
    <path clip-path="url(#p9b9fd4ea64)" d="M 338.368256 108.532952 
L 366.177042 108.532952 
" style="fill:none;stroke:#1f77b4;stroke-width:1.5;"/>
    <path clip-path="url(#p9b9fd4ea64)" d="M 332.983897 109.453498 
L 360.792684 109.453498 
" style="fill:none;stroke:#1f77b4;stroke-width:1.5;"/>
    <path clip-path="url(#p9b9fd4ea64)" d="M 327.599539 111.443868 
L 355.408325 111.443868 
" style="fill:none;stroke:#1f77b4;stroke-width:1.5;"/>
    <path clip-path="url(#p9b9fd4ea64)" d="M 322.21518 113.33472 
L 350.023967 113.33472 
" style="fill:none;stroke:#1f77b4;stroke-width:1.5;"/>
    <path clip-path="url(#p9b9fd4ea64)" d="M 318.176911 114.62846 
L 345.985698 114.62846 
" style="fill:none;stroke:#1f77b4;stroke-width:1.5;"/>
    <path clip-path="url(#p9b9fd4ea64)" d="M 312.792552 116.170997 
L 340.601339 116.170997 
" style="fill:none;stroke:#1f77b4;stroke-width:1.5;"/>
    <path clip-path="url(#p9b9fd4ea64)" d="M 307.408194 118.410163 
L 335.21698 118.410163 
" style="fill:none;stroke:#1f77b4;stroke-width:1.5;"/>
    <path clip-path="url(#p9b9fd4ea64)" d="M 303.369925 119.579505 
L 331.178711 119.579505 
" style="fill:none;stroke:#1f77b4;stroke-width:1.5;"/>
    <path clip-path="url(#p9b9fd4ea64)" d="M 297.985566 121.793792 
L 325.794353 121.793792 
" style="fill:none;stroke:#1f77b4;stroke-width:1.5;"/>
    <path clip-path="url(#p9b9fd4ea64)" d="M 293.947297 122.58994 
L 321.756084 122.58994 
" style="fill:none;stroke:#1f77b4;stroke-width:1.5;"/>
    <path clip-path="url(#p9b9fd4ea64)" d="M 288.562938 124.853986 
L 316.371725 124.853986 
" style="fill:none;stroke:#1f77b4;stroke-width:1.5;"/>
    <path clip-path="url(#p9b9fd4ea64)" d="M 284.524669 124.878866 
L 312.333456 124.878866 
" style="fill:none;stroke:#1f77b4;stroke-width:1.5;"/>
    <path clip-path="url(#p9b9fd4ea64)" d="M 280.4864 126.744837 
L 308.295187 126.744837 
" style="fill:none;stroke:#1f77b4;stroke-width:1.5;"/>
    <path clip-path="url(#p9b9fd4ea64)" d="M 276.448131 128.113217 
L 304.256918 128.113217 
" style="fill:none;stroke:#1f77b4;stroke-width:1.5;"/>
    <path clip-path="url(#p9b9fd4ea64)" d="M 273.755952 129.85479 
L 301.564739 129.85479 
" style="fill:none;stroke:#1f77b4;stroke-width:1.5;"/>
   </g>
   <g id="LineCollection_2">
    <path clip-path="url(#p9b9fd4ea64)" d="M 93.150389 181.066113 
L 93.150389 173.136283 
" style="fill:none;stroke:#1f77b4;stroke-width:1.5;"/>
    <path clip-path="url(#p9b9fd4ea64)" d="M 95.169524 158.67445 
L 95.169524 150.744621 
" style="fill:none;stroke:#1f77b4;stroke-width:1.5;"/>
    <path clip-path="url(#p9b9fd4ea64)" d="M 118.053048 178.826946 
L 118.053048 170.897117 
" style="fill:none;stroke:#1f77b4;stroke-width:1.5;"/>
    <path clip-path="url(#p9b9fd4ea64)" d="M 130.167855 176.338984 
L 130.167855 168.409155 
" style="fill:none;stroke:#1f77b4;stroke-width:1.5;"/>
    <path clip-path="url(#p9b9fd4ea64)" d="M 146.320931 174.348614 
L 146.320931 166.418785 
" style="fill:none;stroke:#1f77b4;stroke-width:1.5;"/>
    <path clip-path="url(#p9b9fd4ea64)" d="M 163.820096 170.989865 
L 163.820096 163.060035 
" style="fill:none;stroke:#1f77b4;stroke-width:1.5;"/>
    <path clip-path="url(#p9b9fd4ea64)" d="M 179.973172 168.825337 
L 179.973172 160.895508 
" style="fill:none;stroke:#1f77b4;stroke-width:1.5;"/>
    <path clip-path="url(#p9b9fd4ea64)" d="M 200.164517 166.387134 
L 200.164517 158.457305 
" style="fill:none;stroke:#1f77b4;stroke-width:1.5;"/>
    <path clip-path="url(#p9b9fd4ea64)" d="M 217.663683 164.894356 
L 217.663683 156.964527 
" style="fill:none;stroke:#1f77b4;stroke-width:1.5;"/>
    <path clip-path="url(#p9b9fd4ea64)" d="M 235.162848 145.488249 
L 235.162848 137.55842 
" style="fill:none;stroke:#1f77b4;stroke-width:1.5;"/>
    <path clip-path="url(#p9b9fd4ea64)" d="M 252.662014 111.428043 
L 252.662014 103.498214 
" style="fill:none;stroke:#1f77b4;stroke-width:1.5;"/>
    <path clip-path="url(#p9b9fd4ea64)" d="M 270.16118 110.93045 
L 270.16118 103.000621 
" style="fill:none;stroke:#1f77b4;stroke-width:1.5;"/>
    <path clip-path="url(#p9b9fd4ea64)" d="M 287.660345 111.428043 
L 287.660345 103.498214 
" style="fill:none;stroke:#1f77b4;stroke-width:1.5;"/>
    <path clip-path="url(#p9b9fd4ea64)" d="M 303.813421 110.93045 
L 303.813421 103.000621 
" style="fill:none;stroke:#1f77b4;stroke-width:1.5;"/>
    <path clip-path="url(#p9b9fd4ea64)" d="M 318.620408 118.668014 
L 318.620408 110.738184 
" style="fill:none;stroke:#1f77b4;stroke-width:1.5;"/>
    <path clip-path="url(#p9b9fd4ea64)" d="M 333.427394 101.700109 
L 333.427394 93.77028 
" style="fill:none;stroke:#1f77b4;stroke-width:1.5;"/>
    <path clip-path="url(#p9b9fd4ea64)" d="M 348.23438 98.714554 
L 348.23438 90.784725 
" style="fill:none;stroke:#1f77b4;stroke-width:1.5;"/>
    <path clip-path="url(#p9b9fd4ea64)" d="M 354.964829 98.31648 
L 354.964829 90.386651 
" style="fill:none;stroke:#1f77b4;stroke-width:1.5;"/>
    <path clip-path="url(#p9b9fd4ea64)" d="M 367.079635 98.241842 
L 367.079635 90.312012 
" style="fill:none;stroke:#1f77b4;stroke-width:1.5;"/>
    <path clip-path="url(#p9b9fd4ea64)" d="M 372.463994 101.724989 
L 372.463994 93.79516 
" style="fill:none;stroke:#1f77b4;stroke-width:1.5;"/>
    <path clip-path="url(#p9b9fd4ea64)" d="M 375.156173 103.939276 
L 375.156173 96.009446 
" style="fill:none;stroke:#1f77b4;stroke-width:1.5;"/>
    <path clip-path="url(#p9b9fd4ea64)" d="M 373.810084 103.043609 
L 373.810084 95.11378 
" style="fill:none;stroke:#1f77b4;stroke-width:1.5;"/>
    <path clip-path="url(#p9b9fd4ea64)" d="M 371.117904 106.427238 
L 371.117904 98.497409 
" style="fill:none;stroke:#1f77b4;stroke-width:1.5;"/>
    <path clip-path="url(#p9b9fd4ea64)" d="M 367.079635 108.392728 
L 367.079635 100.462899 
" style="fill:none;stroke:#1f77b4;stroke-width:1.5;"/>
    <path clip-path="url(#p9b9fd4ea64)" d="M 361.695277 108.94008 
L 361.695277 101.010251 
" style="fill:none;stroke:#1f77b4;stroke-width:1.5;"/>
    <path clip-path="url(#p9b9fd4ea64)" d="M 357.657008 110.756293 
L 357.657008 102.826464 
" style="fill:none;stroke:#1f77b4;stroke-width:1.5;"/>
    <path clip-path="url(#p9b9fd4ea64)" d="M 352.272649 112.497867 
L 352.272649 104.568037 
" style="fill:none;stroke:#1f77b4;stroke-width:1.5;"/>
    <path clip-path="url(#p9b9fd4ea64)" d="M 346.888291 113.418413 
L 346.888291 105.488584 
" style="fill:none;stroke:#1f77b4;stroke-width:1.5;"/>
    <path clip-path="url(#p9b9fd4ea64)" d="M 341.503932 115.408783 
L 341.503932 107.478954 
" style="fill:none;stroke:#1f77b4;stroke-width:1.5;"/>
    <path clip-path="url(#p9b9fd4ea64)" d="M 336.119573 117.299634 
L 336.119573 109.369805 
" style="fill:none;stroke:#1f77b4;stroke-width:1.5;"/>
    <path clip-path="url(#p9b9fd4ea64)" d="M 332.081304 118.593375 
L 332.081304 110.663545 
" style="fill:none;stroke:#1f77b4;stroke-width:1.5;"/>
    <path clip-path="url(#p9b9fd4ea64)" d="M 326.696946 120.135911 
L 326.696946 112.206082 
" style="fill:none;stroke:#1f77b4;stroke-width:1.5;"/>
    <path clip-path="url(#p9b9fd4ea64)" d="M 321.312587 122.375078 
L 321.312587 114.445248 
" style="fill:none;stroke:#1f77b4;stroke-width:1.5;"/>
    <path clip-path="url(#p9b9fd4ea64)" d="M 317.274318 123.54442 
L 317.274318 115.614591 
" style="fill:none;stroke:#1f77b4;stroke-width:1.5;"/>
    <path clip-path="url(#p9b9fd4ea64)" d="M 311.889959 125.758707 
L 311.889959 117.828877 
" style="fill:none;stroke:#1f77b4;stroke-width:1.5;"/>
    <path clip-path="url(#p9b9fd4ea64)" d="M 307.85169 126.554855 
L 307.85169 118.625025 
" style="fill:none;stroke:#1f77b4;stroke-width:1.5;"/>
    <path clip-path="url(#p9b9fd4ea64)" d="M 302.467332 128.8189 
L 302.467332 120.889071 
" style="fill:none;stroke:#1f77b4;stroke-width:1.5;"/>
    <path clip-path="url(#p9b9fd4ea64)" d="M 298.429063 128.84378 
L 298.429063 120.913951 
" style="fill:none;stroke:#1f77b4;stroke-width:1.5;"/>
    <path clip-path="url(#p9b9fd4ea64)" d="M 294.390794 130.709752 
L 294.390794 122.779923 
" style="fill:none;stroke:#1f77b4;stroke-width:1.5;"/>
    <path clip-path="url(#p9b9fd4ea64)" d="M 290.352525 132.078131 
L 290.352525 124.148302 
" style="fill:none;stroke:#1f77b4;stroke-width:1.5;"/>
    <path clip-path="url(#p9b9fd4ea64)" d="M 287.660345 133.819705 
L 287.660345 125.889876 
" style="fill:none;stroke:#1f77b4;stroke-width:1.5;"/>
   </g>
   <g id="line2d_12">
    <path clip-path="url(#p9b9fd4ea64)" d="M 66.228596 219.798389 
L 69.621014 218.26299 
L 73.013432 216.727591 
L 76.405849 215.192192 
L 79.798267 213.656793 
L 83.190685 212.121394 
L 86.583103 210.585995 
L 89.975521 209.050596 
L 93.367939 207.515197 
L 96.760357 205.979798 
L 100.152775 204.444399 
L 103.545193 202.909 
L 106.93761 201.373601 
L 110.330028 199.838202 
L 113.722446 198.302803 
L 117.114864 196.767404 
L 120.507282 195.232005 
L 123.8997 193.696606 
L 127.292118 192.161207 
L 130.684536 190.625808 
L 134.076954 189.090409 
L 137.469371 187.55501 
L 140.861789 186.019611 
L 144.254207 184.484212 
L 147.646625 182.948813 
L 151.039043 181.413414 
L 154.431461 179.878015 
L 157.823879 178.342616 
L 161.216297 176.807217 
L 164.608715 175.271818 
L 168.001132 173.736419 
L 171.39355 172.20102 
L 174.785968 170.665621 
L 178.178386 169.130222 
L 181.570804 167.594823 
L 184.963222 166.059424 
L 188.35564 164.524025 
L 191.748058 162.988626 
L 195.140476 161.453227 
L 198.532893 159.917828 
L 201.925311 158.382429 
L 205.317729 156.84703 
L 208.710147 155.311631 
L 212.102565 153.776232 
L 215.494983 152.240833 
L 218.887401 150.705434 
L 222.279819 149.170035 
L 225.672237 147.634636 
L 229.064654 146.099237 
L 232.457072 144.563838 
L 235.84949 143.028439 
L 239.241908 141.49304 
L 242.634326 139.957641 
L 246.026744 138.422242 
L 249.419162 136.886843 
L 252.81158 135.351444 
L 256.203998 133.816045 
L 259.596415 132.280646 
L 262.988833 130.745247 
L 266.381251 129.209848 
L 269.773669 127.674449 
L 273.166087 126.13905 
L 276.558505 124.603651 
L 279.950923 123.068252 
L 283.343341 121.532853 
L 286.735759 119.997454 
L 290.128176 118.462055 
L 293.520594 116.926656 
L 296.913012 115.391257 
L 300.30543 113.855858 
L 303.697848 112.320459 
L 307.090266 110.78506 
L 310.482684 109.249661 
L 313.875102 107.714262 
L 317.26752 106.178863 
L 320.659937 104.643464 
L 324.052355 103.108065 
L 327.444773 101.572666 
L 330.837191 100.037267 
L 334.229609 98.501868 
L 337.622027 96.966469 
L 341.014445 95.43107 
L 344.406863 93.895671 
L 347.799281 92.360272 
L 351.191698 90.824873 
L 354.584116 89.289474 
L 357.976534 87.754075 
L 361.368952 86.218676 
L 364.76137 84.683277 
L 368.153788 83.147878 
L 371.546206 81.612479 
L 374.938624 80.07708 
L 378.331042 78.541681 
L 381.723459 77.006282 
L 385.115877 75.470883 
L 388.508295 73.935484 
L 391.900713 72.400085 
L 395.293131 70.864686 
L 398.685549 69.329287 
L 402.077967 67.793889 
" style="fill:none;stroke:#ff7f00;stroke-linecap:square;stroke-width:1.5;"/>
   </g>
   <g id="line2d_13"/>
   <g id="patch_3">
    <path d="M 39.306803 251.740072 
L 39.306803 19.638052 
" style="fill:none;stroke:#000000;stroke-linecap:square;stroke-linejoin:miter;stroke-width:0.8;"/>
   </g>
   <g id="patch_4">
    <path d="M 428.99976 251.740072 
L 428.99976 19.638052 
" style="fill:none;stroke:#000000;stroke-linecap:square;stroke-linejoin:miter;stroke-width:0.8;"/>
   </g>
   <g id="patch_5">
    <path d="M 39.306803 251.740072 
L 428.99976 251.740072 
" style="fill:none;stroke:#000000;stroke-linecap:square;stroke-linejoin:miter;stroke-width:0.8;"/>
   </g>
   <g id="patch_6">
    <path d="M 39.306803 19.638052 
L 428.99976 19.638052 
" style="fill:none;stroke:#000000;stroke-linecap:square;stroke-linejoin:miter;stroke-width:0.8;"/>
   </g>
   <g id="text_14">
    <!-- hell0o -->
    <defs>
     <path d="M 54.890625 33.015625 
L 54.890625 0 
L 45.90625 0 
L 45.90625 32.71875 
Q 45.90625 40.484375 42.875 44.328125 
Q 39.84375 48.1875 33.796875 48.1875 
Q 26.515625 48.1875 22.3125 43.546875 
Q 18.109375 38.921875 18.109375 30.90625 
L 18.109375 0 
L 9.078125 0 
L 9.078125 75.984375 
L 18.109375 75.984375 
L 18.109375 46.1875 
Q 21.34375 51.125 25.703125 53.5625 
Q 30.078125 56 35.796875 56 
Q 45.21875 56 50.046875 50.171875 
Q 54.890625 44.34375 54.890625 33.015625 
z
" id="DejaVuSans-104"/>
     <path d="M 56.203125 29.59375 
L 56.203125 25.203125 
L 14.890625 25.203125 
Q 15.484375 15.921875 20.484375 11.0625 
Q 25.484375 6.203125 34.421875 6.203125 
Q 39.59375 6.203125 44.453125 7.46875 
Q 49.3125 8.734375 54.109375 11.28125 
L 54.109375 2.78125 
Q 49.265625 0.734375 44.1875 -0.34375 
Q 39.109375 -1.421875 33.890625 -1.421875 
Q 20.796875 -1.421875 13.15625 6.1875 
Q 5.515625 13.8125 5.515625 26.8125 
Q 5.515625 40.234375 12.765625 48.109375 
Q 20.015625 56 32.328125 56 
Q 43.359375 56 49.78125 48.890625 
Q 56.203125 41.796875 56.203125 29.59375 
z
M 47.21875 32.234375 
Q 47.125 39.59375 43.09375 43.984375 
Q 39.0625 48.390625 32.421875 48.390625 
Q 24.90625 48.390625 20.390625 44.140625 
Q 15.875 39.890625 15.1875 32.171875 
z
" id="DejaVuSans-101"/>
     <path d="M 9.421875 75.984375 
L 18.40625 75.984375 
L 18.40625 0 
L 9.421875 0 
z
" id="DejaVuSans-108"/>
     <path d="M 30.609375 48.390625 
Q 23.390625 48.390625 19.1875 42.75 
Q 14.984375 37.109375 14.984375 27.296875 
Q 14.984375 17.484375 19.15625 11.84375 
Q 23.34375 6.203125 30.609375 6.203125 
Q 37.796875 6.203125 41.984375 11.859375 
Q 46.1875 17.53125 46.1875 27.296875 
Q 46.1875 37.015625 41.984375 42.703125 
Q 37.796875 48.390625 30.609375 48.390625 
z
M 30.609375 56 
Q 42.328125 56 49.015625 48.375 
Q 55.71875 40.765625 55.71875 27.296875 
Q 55.71875 13.875 49.015625 6.21875 
Q 42.328125 -1.421875 30.609375 -1.421875 
Q 18.84375 -1.421875 12.171875 6.21875 
Q 5.515625 13.875 5.515625 27.296875 
Q 5.515625 40.765625 12.171875 48.375 
Q 18.84375 56 30.609375 56 
z
" id="DejaVuSans-111"/>
    </defs>
    <g transform="translate(212.783594 13.638052)scale(0.14 -0.14)">
     <use xlink:href="#DejaVuSans-104"/>
     <use x="63.378906" xlink:href="#DejaVuSans-101"/>
     <use x="124.902344" xlink:href="#DejaVuSans-108"/>
     <use x="152.685547" xlink:href="#DejaVuSans-108"/>
     <use x="180.46875" xlink:href="#DejaVuSans-48"/>
     <use x="244.091797" xlink:href="#DejaVuSans-111"/>
    </g>
   </g>
   <g id="legend_1">
    <g id="patch_7">
     <path d="M 302.491948 56.994302 
L 421.99976 56.994302 
Q 423.99976 56.994302 423.99976 54.994302 
L 423.99976 26.638052 
Q 423.99976 24.638052 421.99976 24.638052 
L 302.491948 24.638052 
Q 300.491948 24.638052 300.491948 26.638052 
L 300.491948 54.994302 
Q 300.491948 56.994302 302.491948 56.994302 
z
" style="fill:#ffffff;opacity:0.8;stroke:#cccccc;stroke-linejoin:miter;"/>
    </g>
    <g id="line2d_14">
     <path d="M 304.491948 32.73649 
L 324.491948 32.73649 
" style="fill:none;stroke:#ff7f00;stroke-linecap:square;stroke-width:1.5;"/>
    </g>
    <g id="line2d_15"/>
    <g id="text_15">
     <!-- Linear Estimation -->
     <defs>
      <path d="M 9.8125 72.90625 
L 19.671875 72.90625 
L 19.671875 8.296875 
L 55.171875 8.296875 
L 55.171875 0 
L 9.8125 0 
z
" id="DejaVuSans-76"/>
      <path d="M 9.421875 54.6875 
L 18.40625 54.6875 
L 18.40625 0 
L 9.421875 0 
z
M 9.421875 75.984375 
L 18.40625 75.984375 
L 18.40625 64.59375 
L 9.421875 64.59375 
z
" id="DejaVuSans-105"/>
      <path d="M 54.890625 33.015625 
L 54.890625 0 
L 45.90625 0 
L 45.90625 32.71875 
Q 45.90625 40.484375 42.875 44.328125 
Q 39.84375 48.1875 33.796875 48.1875 
Q 26.515625 48.1875 22.3125 43.546875 
Q 18.109375 38.921875 18.109375 30.90625 
L 18.109375 0 
L 9.078125 0 
L 9.078125 54.6875 
L 18.109375 54.6875 
L 18.109375 46.1875 
Q 21.34375 51.125 25.703125 53.5625 
Q 30.078125 56 35.796875 56 
Q 45.21875 56 50.046875 50.171875 
Q 54.890625 44.34375 54.890625 33.015625 
z
" id="DejaVuSans-110"/>
      <path d="M 34.28125 27.484375 
Q 23.390625 27.484375 19.1875 25 
Q 14.984375 22.515625 14.984375 16.5 
Q 14.984375 11.71875 18.140625 8.90625 
Q 21.296875 6.109375 26.703125 6.109375 
Q 34.1875 6.109375 38.703125 11.40625 
Q 43.21875 16.703125 43.21875 25.484375 
L 43.21875 27.484375 
z
M 52.203125 31.203125 
L 52.203125 0 
L 43.21875 0 
L 43.21875 8.296875 
Q 40.140625 3.328125 35.546875 0.953125 
Q 30.953125 -1.421875 24.3125 -1.421875 
Q 15.921875 -1.421875 10.953125 3.296875 
Q 6 8.015625 6 15.921875 
Q 6 25.140625 12.171875 29.828125 
Q 18.359375 34.515625 30.609375 34.515625 
L 43.21875 34.515625 
L 43.21875 35.40625 
Q 43.21875 41.609375 39.140625 45 
Q 35.0625 48.390625 27.6875 48.390625 
Q 23 48.390625 18.546875 47.265625 
Q 14.109375 46.140625 10.015625 43.890625 
L 10.015625 52.203125 
Q 14.9375 54.109375 19.578125 55.046875 
Q 24.21875 56 28.609375 56 
Q 40.484375 56 46.34375 49.84375 
Q 52.203125 43.703125 52.203125 31.203125 
z
" id="DejaVuSans-97"/>
      <path d="M 41.109375 46.296875 
Q 39.59375 47.171875 37.8125 47.578125 
Q 36.03125 48 33.890625 48 
Q 26.265625 48 22.1875 43.046875 
Q 18.109375 38.09375 18.109375 28.8125 
L 18.109375 0 
L 9.078125 0 
L 9.078125 54.6875 
L 18.109375 54.6875 
L 18.109375 46.1875 
Q 20.953125 51.171875 25.484375 53.578125 
Q 30.03125 56 36.53125 56 
Q 37.453125 56 38.578125 55.875 
Q 39.703125 55.765625 41.0625 55.515625 
z
" id="DejaVuSans-114"/>
      <path id="DejaVuSans-32"/>
      <path d="M 9.8125 72.90625 
L 55.90625 72.90625 
L 55.90625 64.59375 
L 19.671875 64.59375 
L 19.671875 43.015625 
L 54.390625 43.015625 
L 54.390625 34.71875 
L 19.671875 34.71875 
L 19.671875 8.296875 
L 56.78125 8.296875 
L 56.78125 0 
L 9.8125 0 
z
" id="DejaVuSans-69"/>
      <path d="M 18.3125 70.21875 
L 18.3125 54.6875 
L 36.8125 54.6875 
L 36.8125 47.703125 
L 18.3125 47.703125 
L 18.3125 18.015625 
Q 18.3125 11.328125 20.140625 9.421875 
Q 21.96875 7.515625 27.59375 7.515625 
L 36.8125 7.515625 
L 36.8125 0 
L 27.59375 0 
Q 17.1875 0 13.234375 3.875 
Q 9.28125 7.765625 9.28125 18.015625 
L 9.28125 47.703125 
L 2.6875 47.703125 
L 2.6875 54.6875 
L 9.28125 54.6875 
L 9.28125 70.21875 
z
" id="DejaVuSans-116"/>
      <path d="M 52 44.1875 
Q 55.375 50.25 60.0625 53.125 
Q 64.75 56 71.09375 56 
Q 79.640625 56 84.28125 50.015625 
Q 88.921875 44.046875 88.921875 33.015625 
L 88.921875 0 
L 79.890625 0 
L 79.890625 32.71875 
Q 79.890625 40.578125 77.09375 44.375 
Q 74.3125 48.1875 68.609375 48.1875 
Q 61.625 48.1875 57.5625 43.546875 
Q 53.515625 38.921875 53.515625 30.90625 
L 53.515625 0 
L 44.484375 0 
L 44.484375 32.71875 
Q 44.484375 40.625 41.703125 44.40625 
Q 38.921875 48.1875 33.109375 48.1875 
Q 26.21875 48.1875 22.15625 43.53125 
Q 18.109375 38.875 18.109375 30.90625 
L 18.109375 0 
L 9.078125 0 
L 9.078125 54.6875 
L 18.109375 54.6875 
L 18.109375 46.1875 
Q 21.1875 51.21875 25.484375 53.609375 
Q 29.78125 56 35.6875 56 
Q 41.65625 56 45.828125 52.96875 
Q 50 49.953125 52 44.1875 
z
" id="DejaVuSans-109"/>
     </defs>
     <g transform="translate(332.491948 36.23649)scale(0.1 -0.1)">
      <use xlink:href="#DejaVuSans-76"/>
      <use x="55.712891" xlink:href="#DejaVuSans-105"/>
      <use x="83.496094" xlink:href="#DejaVuSans-110"/>
      <use x="146.875" xlink:href="#DejaVuSans-101"/>
      <use x="208.398438" xlink:href="#DejaVuSans-97"/>
      <use x="269.677734" xlink:href="#DejaVuSans-114"/>
      <use x="310.791016" xlink:href="#DejaVuSans-32"/>
      <use x="342.578125" xlink:href="#DejaVuSans-69"/>
      <use x="405.761719" xlink:href="#DejaVuSans-115"/>
      <use x="457.861328" xlink:href="#DejaVuSans-116"/>
      <use x="497.070312" xlink:href="#DejaVuSans-105"/>
      <use x="524.853516" xlink:href="#DejaVuSans-109"/>
      <use x="622.265625" xlink:href="#DejaVuSans-97"/>
      <use x="683.544922" xlink:href="#DejaVuSans-116"/>
      <use x="722.753906" xlink:href="#DejaVuSans-105"/>
      <use x="750.537109" xlink:href="#DejaVuSans-111"/>
      <use x="811.71875" xlink:href="#DejaVuSans-110"/>
     </g>
    </g>
    <g id="PathCollection_2">
     <g>
      <use style="fill:#1f77b4;stroke:#1f77b4;" x="314.491948" xlink:href="#mcd8e00a45f" y="48.289615"/>
     </g>
    </g>
    <g id="text_16">
     <!-- Data Plotting -->
     <defs>
      <path d="M 19.671875 64.796875 
L 19.671875 8.109375 
L 31.59375 8.109375 
Q 46.6875 8.109375 53.6875 14.9375 
Q 60.6875 21.78125 60.6875 36.53125 
Q 60.6875 51.171875 53.6875 57.984375 
Q 46.6875 64.796875 31.59375 64.796875 
z
M 9.8125 72.90625 
L 30.078125 72.90625 
Q 51.265625 72.90625 61.171875 64.09375 
Q 71.09375 55.28125 71.09375 36.53125 
Q 71.09375 17.671875 61.125 8.828125 
Q 51.171875 0 30.078125 0 
L 9.8125 0 
z
" id="DejaVuSans-68"/>
      <path d="M 19.671875 64.796875 
L 19.671875 37.40625 
L 32.078125 37.40625 
Q 38.96875 37.40625 42.71875 40.96875 
Q 46.484375 44.53125 46.484375 51.125 
Q 46.484375 57.671875 42.71875 61.234375 
Q 38.96875 64.796875 32.078125 64.796875 
z
M 9.8125 72.90625 
L 32.078125 72.90625 
Q 44.34375 72.90625 50.609375 67.359375 
Q 56.890625 61.8125 56.890625 51.125 
Q 56.890625 40.328125 50.609375 34.8125 
Q 44.34375 29.296875 32.078125 29.296875 
L 19.671875 29.296875 
L 19.671875 0 
L 9.8125 0 
z
" id="DejaVuSans-80"/>
      <path d="M 45.40625 27.984375 
Q 45.40625 37.75 41.375 43.109375 
Q 37.359375 48.484375 30.078125 48.484375 
Q 22.859375 48.484375 18.828125 43.109375 
Q 14.796875 37.75 14.796875 27.984375 
Q 14.796875 18.265625 18.828125 12.890625 
Q 22.859375 7.515625 30.078125 7.515625 
Q 37.359375 7.515625 41.375 12.890625 
Q 45.40625 18.265625 45.40625 27.984375 
z
M 54.390625 6.78125 
Q 54.390625 -7.171875 48.1875 -13.984375 
Q 42 -20.796875 29.203125 -20.796875 
Q 24.46875 -20.796875 20.265625 -20.09375 
Q 16.0625 -19.390625 12.109375 -17.921875 
L 12.109375 -9.1875 
Q 16.0625 -11.328125 19.921875 -12.34375 
Q 23.78125 -13.375 27.78125 -13.375 
Q 36.625 -13.375 41.015625 -8.765625 
Q 45.40625 -4.15625 45.40625 5.171875 
L 45.40625 9.625 
Q 42.625 4.78125 38.28125 2.390625 
Q 33.9375 0 27.875 0 
Q 17.828125 0 11.671875 7.65625 
Q 5.515625 15.328125 5.515625 27.984375 
Q 5.515625 40.671875 11.671875 48.328125 
Q 17.828125 56 27.875 56 
Q 33.9375 56 38.28125 53.609375 
Q 42.625 51.21875 45.40625 46.390625 
L 45.40625 54.6875 
L 54.390625 54.6875 
z
" id="DejaVuSans-103"/>
     </defs>
     <g transform="translate(332.491948 50.914615)scale(0.1 -0.1)">
      <use xlink:href="#DejaVuSans-68"/>
      <use x="77.001953" xlink:href="#DejaVuSans-97"/>
      <use x="138.28125" xlink:href="#DejaVuSans-116"/>
      <use x="177.490234" xlink:href="#DejaVuSans-97"/>
      <use x="238.769531" xlink:href="#DejaVuSans-32"/>
      <use x="270.556641" xlink:href="#DejaVuSans-80"/>
      <use x="330.859375" xlink:href="#DejaVuSans-108"/>
      <use x="358.642578" xlink:href="#DejaVuSans-111"/>
      <use x="419.824219" xlink:href="#DejaVuSans-116"/>
      <use x="459.033203" xlink:href="#DejaVuSans-116"/>
      <use x="498.242188" xlink:href="#DejaVuSans-105"/>
      <use x="526.025391" xlink:href="#DejaVuSans-110"/>
      <use x="589.404297" xlink:href="#DejaVuSans-103"/>
     </g>
    </g>
   </g>
  </g>
 </g>
 <defs>
  <clipPath id="p9b9fd4ea64">
   <rect height="232.10202" width="389.692958" x="39.306803" y="19.638052"/>
  </clipPath>
 </defs>
</svg>
